<?xml version="1.0" encoding="UTF-8"?><svg id="Layer_1" xmlns="http://www.w3.org/2000/svg" xmlns:xlink="http://www.w3.org/1999/xlink" viewBox="0 0 3508 3125"><defs><style>.cls-1{fill:none;}.cls-2{clip-path:url(#clippath);}.cls-3{fill:#b99144;}.cls-4{fill:#b79144;}.cls-5{fill:#b79044;}.cls-6{fill:#c29748;}.cls-7{fill:#b28d42;}.cls-8{fill:#bd9446;}.cls-9{fill:#c19748;}.cls-10{fill:#24320f;}.cls-11{fill:#283410;}.cls-12{fill:#2a3511;}.cls-13{fill:#263310;}.cls-14{fill:#273410;}</style><clipPath id="clippath"><circle class="cls-1" cx="1754" cy="1562.5" r="1527.56"/></clipPath></defs><g class="cls-2"><g><path class="cls-10" d="M3508,3125H0V0H3508V3125ZM1401.04,820.45c4.2,1.88,5.58,4.68,7.39,7,112.08,143.3,224.11,286.63,336.25,429.88,3.49,4.45,5.09,8.92,5.06,14.58-.17,37.98-.06,75.96-.11,113.94-.01,9.92-.12,9.92-9.87,10.07-2.67,.04-5.33,.01-8,.01h-232.96c-2.67,0-5.34,.15-8,0-4.64-.26-6.55,1.68-6.56,6.44,0,4.69,2.47,5.59,6.29,5.5,2.33-.06,4.67,.05,7,.05h455.92c3,0,6-.21,8.99-.17,4.21,.05,5.7-1.88,5.6-6.09-.1-4.44-2.21-5.84-6.21-5.7-2.66,.09-5.33,0-8,0h-177.97c-3,0-6-.09-9-.1-3.21-.01-4.97-1.43-4.94-4.8,.02-2.66-.08-5.33-.08-7.99,0-47.98,.12-95.95-.14-143.93-.04-7.42,1.95-13.22,6.55-19.08,53.51-68.12,106.8-136.43,160.14-204.68,36.11-46.2,72.21-92.42,108.39-138.56,2.25-2.87,3.81-6.85,8.29-7.79,1.48,4.83,.83,9.17,.83,13.44,.04,168.92,.03,337.84,.03,506.75,0,3.33-.05,6.66,.02,9.99,.17,8.49,.19,8.64,9.1,8.69,19,.11,37.99,.16,56.99,0,12.8-.1,12.45,2.21,12.45-12.27,.02-196.57,.02-393.14,.01-589.71,0-2.66-.12-5.33-.13-7.99-.01-3.76-1.96-5.35-5.62-5.32-6.67,.04-13.39,.5-19.98-.18-9.59-1-15.86,2.36-21.79,10.27-20.18,26.92-41.39,53.07-61.83,79.8-4.12,5.39-8.49,7.26-15.09,7.24-52.99-.2-105.98-.08-158.97-.06-1,0-2.01-.09-3,0-5.37,.52-7.08-2.32-6.85-7.19,.13-2.66-.01-5.33-.01-7.99,0-23.66,.04-47.31-.03-70.97-.03-9.55-.91-10.53-10.01-10.66-16.99-.26-33.98-.54-50.98,.23-12.89,.58-25.09,3.46-36.51,9.26-4.62,2.35-8.18,2.7-12.83-.24-10.07-6.36-21.5-8.83-33.32-9.34-6.71-.29-7.52,.41-7.57,7.23-.14,17.32-.06,34.65-.07,51.97,0,10.33-.13,20.66,.02,30.98,.06,4.53-1.5,6.94-6.33,6.64-2.32-.14-4.66,.01-7,.01-49.33,0-98.65-.23-147.97,.22-8.67,.08-13.95-2.69-19.1-9.45-20.77-27.31-42.21-54.12-63.17-81.3-3.61-4.67-7.49-6.95-13.45-6.62-7.31,.4-14.66,.13-21.99,.09-17.42-.1-14.75,.34-14.75,14.44-.04,195.9,0,391.81,.02,587.71,0,3,.03,6,.13,8.99,.04,1.31,.1,2.81,1.54,3.4,3.2,1.31,6.58,1.18,9.81,.38,3.07-.77,2.26-3.68,2.37-5.87,.16-3.32,.06-6.66,.06-9.99,0-185.91,0-371.82,.03-557.73,0-4.2-.56-8.49,.86-13.39l.05-.04Zm-87.98,883.4c1.72,4.76,1.05,9.05,1.05,13.19,.04,138.58,.02,277.17,.05,415.75,0,15.1-1.56,14.19,13.92,14.03,15.28-.16,14.22,2.78,14.23-14.55,.05-154.57,.03-309.15,.03-463.72,0-2.66-.18-5.33-.07-7.99,.18-4.51-1.48-6.78-6.38-6.53-5.32,.28-10.73,.59-15.98-.09-8.86-1.14-13.61,2.54-18.08,10.2-42.48,72.78-85.39,145.3-128.25,217.86-1.98,3.35-3.25,7.29-6.88,9.63-3.91-2.04-5.07-6.11-7.04-9.45-41.18-69.68-82.25-139.42-123.46-209.09-3.7-6.25-5.76-14.46-12.12-17.91-5.97-3.24-13.73-1-20.69-1.07-12.93-.13-12.96-.01-12.96,13.15v466.72c0,13.6-.78,12.88,13.21,12.9,10.05,.01,15.09-5.06,15.1-15.22v-411.75c0-3-.09-6,.05-8.99,.1-2.16-.61-4.7,2.47-6.3,3.03,2.11,4.31,5.63,6.1,8.65,20.19,34.11,40.32,68.26,60.46,102.39,20.65,35,41.3,70,62,104.97,1.66,2.81,2.62,6.83,6.09,7.54,6.86,1.42,14,1.29,20.86,.14,4.27-.72,5.29-5.67,7.27-9.02,40.53-68.52,80.98-137.08,121.51-205.6,1.93-3.26,3.22-7.15,7.51-9.83h0Zm905.48,442.37c-.9-5.37-4.02-8.12-6.3-11.28-56.88-78.92-113.84-157.79-170.71-236.72-2.21-3.07-6.89-6.29-4.8-10.01,2-3.57,7.33-1.64,11.18-1.71,20.32-.4,40.66,.55,60.97-.59,56.52-3.18,113-56.42,107.25-123.91-4.16-48.8-37.15-90.4-83.99-103.47-12.3-3.43-24.88-4.49-37.59-4.49-45.99,0-91.98-.02-137.98,0-16.67,0-14.58-.84-14.59,14.42-.05,154.59-.04,309.18,0,463.77,0,15.81-1.86,14.59,14.37,14.6,15.28,0,13.78,1.15,13.79-14.17,.03-144.59,.02-289.19,.02-433.78,0-3-.09-6,.04-8.99,.3-6.65,.73-7.03,7.68-7.44,1.66-.1,3.33-.05,5-.05,37.33,0,74.65-.04,111.98,.05,5.99,.01,12.01,.31,17.95,1,58.37,6.84,94.06,75.34,65.46,126.66-16.99,30.49-43.32,47.38-78.84,47.85-29.32,.39-58.66,.1-87.98,.13-3,0-6,.02-8.99,.22-2.13,.14-4.1,1.08-4.07,3.52,.17,11.71-1.81,23.04,6.36,34.17,44.99,61.2,89.16,123,133.62,184.6,14.43,19.99,28.85,39.98,43.32,59.95,2.1,2.9,3.76,6.39,8.29,6.29,9.26-.2,18.55,.58,28.56-.6v-.02Zm-496.19-245.56h.19v-97.94c0-11-.24-21.99-2.55-32.81-11.79-55.37-43.52-94.23-97.83-111.17-54.02-16.85-103.03-4.89-143.9,34.66-28.65,27.73-42.38,62.66-42.59,102.41-.36,69.62-.1,139.25-.11,208.87,0,8.68,.63,17.32,2.41,25.82,11.56,55.43,43.17,94.4,97.43,111.5,54.37,17.13,103.64,5.05,144.75-34.84,27.25-26.44,41.08-59.72,42-97.58,.89-36.29,.19-72.62,.19-108.92h.01Zm783.02,246.2c17.45-.06,15.29,.98,11.39-15.04-33.6-137.76-67.24-275.51-100.87-413.27-4.58-18.76-9.16-37.51-13.82-56.25-2.02-8.12-2.1-8.14-10.76-8.24-6.33-.07-12.66-.06-18.99,0-17.39,.14-14.02-1.62-17.94,14.38-34.67,141.27-69.15,282.59-103.68,423.89-3.79,15.52-7.58,31.04-11.23,46.6-1.77,7.55-1.58,7.68,6.38,7.91,3.66,.11,7.33,.07,10.99,.02,8.83-.12,8.87-.13,11.1-9.13,4.08-16.48,8.1-32.97,12.15-49.46,9.45-38.47,18.88-76.94,28.38-115.4,2.21-8.95,2.31-9.13,10.17-9.14,40.32-.07,80.63,.07,120.95-.15,5.89-.03,8.61,2.22,9.37,7.71,.23,1.64,.76,3.24,1.16,4.85,13.23,53.65,26.46,107.3,39.71,160.94,2.4,9.72,2.44,9.71,12.55,9.78h2.99Zm-659.78-246.2v-233.83c0-12.75-.03-12.91-12.35-12.74-13.77,.18-16.13-3.96-16.12,15.48,.1,153.89,.08,307.78,.03,461.67,0,19.57,1.14,15.32,15.71,15.57,12.68,.22,12.72,.02,12.72-12.32,.01-77.94,0-155.89,0-233.83h.01Zm-107.11-548.84c1.86-11.21,.65-19.94-6.36-28.7-31.21-39.01-61.71-78.58-92.48-117.95-73.43-93.94-146.86-187.89-220.34-281.79-2.13-2.72-3.56-6.4-8.29-7.66-1.18,10.46-.79,19.1,6.21,28.01,104.68,133.35,208.98,267,313.4,400.55,1.99,2.54,3.48,5.68,7.86,7.54h0Zm-534.78,916.32c10.19-9.55,12.86-13.69,14.07-21.3,3.17-19.8-8.71-35.82-28.76-38.04-14.24-1.58-28.6-.38-42.9-.62-4.34-.07-5.89,2.36-6.14,6.15-.15,2.32-.19,4.65-.19,6.98-.01,32.27-.01,64.54,0,96.81,0,2.33,.2,4.66,.16,6.98-.07,4.25,2.02,5.78,6.15,5.73,13.64-.17,27.29-.04,40.93-.23,3.3-.05,6.62-.72,9.86-1.44,18.66-4.14,28.2-19.51,24.1-38.25-2.21-10.1-8.17-17.25-17.3-22.78h.02Zm261.91,61.07c-9.99-15.46-23.23-28.16-32.86-43.4,2.97-3.06,6.26-2.59,8.98-3.59,5.12-1.88,9.82-4.38,13.26-8.59,11.01-13.47,11.95-28.6,5.89-44.19-5.72-14.71-17.35-21.3-32.91-21.32-11.66-.02-23.32-.1-34.98,0-10.19,.08-10.46,.35-10.47,10.94-.05,33.97-.02,67.94,0,101.91,0,1.99,.04,4,.25,5.98,.25,2.27,1.64,3.58,3.95,3.67,2.28,.09,3.92-1.01,4.25-3.28,.34-2.29,.37-4.64,.38-6.96,.06-9.66,.14-19.32,.06-28.97-.04-4.51,1.77-6.81,6.47-6.7,4.66,.11,9.35,.28,13.98-.12,5.97-.5,9.87,1.96,13.41,6.66,8.82,11.7,18.15,23.01,27.15,34.58,3.38,4.35,7.03,6.78,13.19,3.4v-.02Zm757.58-44.52c11.13-2.09,19.36-4.9,24.81-12.27,10.28-13.89,10.87-29.04,4.22-44.44-6.12-14.16-17.83-19.95-32.87-19.89-11.33,.05-22.66-.07-33.98,.01-10.52,.08-10.84,.34-10.85,10.56-.06,33.97-.03,67.95,0,101.92,0,2.32,.02,4.68,.41,6.96,.39,2.27,2.13,3.21,4.41,3.05,1.87-.13,3.24-1.15,3.54-2.91,.39-2.28,.45-4.63,.47-6.95,.07-9.66,.18-19.32,.04-28.98-.07-5.07,2.07-7.31,7.13-7.1,3.66,.15,7.36,.32,10.98-.09,7.36-.84,12.41,1.78,16.85,7.91,8.4,11.59,17.56,22.63,26.57,33.76,4.57,5.65,5.04,5.57,12.69,2.2-11.12-14.14-22.15-28.18-34.39-43.76l-.03,.02Zm-652.49-16.56c-3.26,2.63-5.98,4.55-8.39,6.81-17.05,15.94-12.62,44.26,8.3,53.42,17.21,7.54,36.18,4.12,49.65-8.91,.39-.38,1.18-.35,1.9-.54,2.7,1.52,3.28,4.79,5.37,6.9,2.43,2.46,5.17,4.23,8.58,4.72,3.32,.47,4.07-1.4,3.45-4.26-.38-1.76-1.53-2.99-3.05-3.75-6.96-3.5-8.5-9.92-8.82-16.76-.39-8.64-.34-17.31-.48-25.96-.07-4.23,.2-8.12,5.9-8.45,1.87-.11,2.88-1.65,2.61-3.56-.31-2.2-1.53-3.62-3.94-3.66-2.33-.04-4.66-.1-6.99-.11-10.66-.02-21.32,.01-31.98-.06-6.38-.04-12.65-.78-18.41-3.83-8.85-4.69-12.99-12.06-12.46-22.07,.52-9.66,5.49-16.2,14.24-19.9,2.73-1.15,5.7-2.06,8.64-2.36,8.33-.85,16.68-1.05,24.36,3.2,6.18,3.42,8.21,9.23,9.1,15.77,.39,2.87,2.81,2.23,4.7,2.13,2.08-.1,2.6-1.47,2.64-3.38,.24-9.5-6.5-19.78-16.1-23.26-12.72-4.6-25.63-4.48-37.99,1.15-20.06,9.12-24.09,36.05-7.86,50.98,1.94,1.78,4.08,3.35,7.01,5.73h.02Zm195.89,62.76v.02c9.66,0,19.32,.02,28.98-.02,2.32-.01,4.69,0,6.95-.44,2.33-.45,2.9-2.46,2.85-4.6-.05-2.19-.8-3.99-3.26-4.23-2.31-.23-4.65-.26-6.98-.26-15.32-.02-30.65,.02-45.97-.03-10.6-.03-10.64-.09-10.73-10.27-.07-7.66-.03-15.32-.01-22.98,.03-16.07-.68-14.55,14.58-14.65,13.66-.08,27.31-.04,40.97-.17,2.74-.02,5.61-.63,5.78-4.15,.18-3.69-2.66-4.16-5.45-4.29-2.66-.12-5.33-.07-7.99-.08-13.32-.02-26.65,.11-39.97-.1-6.9-.11-7.68-.86-7.81-7.39-.22-10.98,.04-21.98-.09-32.97-.06-5.18,2.37-6.98,7.32-6.93,14.66,.13,29.31,.03,43.97,0,3.33,0,6.66-.02,9.99-.15,2.28-.09,3.68-1.22,3.82-3.67,.15-2.66-.67-4.6-3.56-5.04-1.31-.2-2.65-.29-3.98-.29-19.32-.02-38.64-.12-57.96,.05-7.44,.07-7.78,.53-7.83,8.15-.12,17.65-.05,35.3-.05,52.95s-.08,35.97,.06,53.95c.06,7.02,.47,7.4,7.38,7.54,9.66,.19,19.32,.05,28.98,.05h.01Zm295.53-61.67c0,17.32-.05,34.63,.02,51.95,.04,9.53,.14,9.66,9.3,9.71,18.99,.09,37.97,.04,56.96,.01,1.99,0,4.02-.02,5.96-.4,2.34-.47,2.96-2.43,2.94-4.56-.02-2.15-.69-4.04-3.17-4.3-2.31-.25-4.65-.27-6.98-.27-15.32-.02-30.65,.02-45.97-.03-10.71-.03-10.73-.08-10.78-11.19-.04-8.66-.06-17.32,0-25.97,.09-10.57,.14-10.65,10.47-10.71,13.99-.08,27.98,.05,41.97-.1,3.43-.04,8.45,1.03,8.71-4.16,.27-5.6-4.89-4.06-8.25-4.4-1.98-.2-3.99-.04-5.99-.04-12.66,0-25.32,.1-37.97-.07-8.17-.11-8.75-.67-8.89-8.37-.18-10.32-.18-20.65,0-30.97,.12-7.44,.5-7.84,8.1-7.91,15.32-.15,30.65-.04,45.97-.08,2.66,0,5.32-.1,7.97-.32,1.95-.16,2.78-1.55,2.98-3.38,.23-2.16-.25-4.13-2.48-4.86-1.54-.51-3.28-.58-4.93-.58-19.32-.04-38.64-.13-57.96,.03-7.53,.06-7.89,.52-7.94,8.03-.12,17.65-.04,35.3-.05,52.95h0Zm-178.57,31.69v-.03c6.33,0,12.66-.07,18.99,.01,15.11,.19,11.89-1.39,17.51,12.29,2.02,4.93,3.87,9.93,6,14.81,1.32,3.03,4.13,3.42,6.76,2.32,2.39-.99,1.51-3.36,.99-5.23-.44-1.6-1.15-3.12-1.75-4.67-13.39-34.44-26.77-68.88-40.16-103.31-.6-1.55-1.26-3.08-1.85-4.64-1.06-2.83-3.07-4.18-6.1-4.2-2.96-.02-5.17,.95-6.18,3.96-.53,1.57-1.26,3.08-1.86,4.63-13.5,34.75-26.99,69.51-40.49,104.26-.6,1.55-1.19,3.11-1.76,4.67-.58,1.61-1.07,3.41,.7,4.43,1.44,.83,3.21,.72,4.84,.11,2.56-.97,2.96-3.46,3.8-5.56,2.36-5.87,4.8-11.71,6.81-17.71,1.48-4.43,3.98-6.38,8.77-6.21,8.32,.28,16.65,.08,24.98,.08h0Zm-535.43,25.56c-.35-.94-.92-2.5-1.51-4.04-13.83-35.62-27.67-71.25-41.51-106.87-.6-1.55-1.06-3.21-1.95-4.57-2.47-3.76-8.47-3.87-10.88-.11-1.23,1.93-1.84,4.26-2.69,6.43-13.37,34.38-26.74,68.76-40.1,103.14-.72,1.86-1.42,3.73-2.08,5.6-.44,1.24-.95,2.56,.2,3.68,1.35,1.32,3.1,1.13,4.69,.81,2.67-.54,3.41-2.87,4.26-5.07,2.27-5.89,4.92-11.66,6.76-17.68,1.66-5.42,4.78-7.11,10.27-7.01,15.63,.29,31.26,.06,46.89,.11,10.14,.03,8.71,.45,11.97,8.62,2.21,5.56,4.4,11.13,6.58,16.69,1.03,2.63,2.41,4.72,5.72,4.55,2.38-.12,3.81-.97,3.38-4.28h0Zm976.63-56.22c-3.7-6.46-7.03-12.2-10.27-17.98-7.49-13.36-14.85-26.79-22.45-40.08-2.14-3.74-6.95-5.28-9.09-3.16-2.81,2.79,.36,4.96,1.48,6.98,10.49,18.93,20.97,37.86,31.91,56.53,3.87,6.6,5.69,13.2,5.34,20.8-.41,8.97-.1,17.98-.08,26.97,0,2.66-.11,5.34,.98,7.87,.73,1.68,1.85,2.68,3.81,2.4,1.85-.26,3.11-1.2,3.28-3.11,.2-2.32,.27-4.65,.27-6.98,.03-9.99,.27-19.99-.08-29.97-.22-6.26,1.44-11.62,4.54-16.98,11.32-19.6,22.39-39.35,33.49-59.08,.9-1.6,2.82-3.47,.72-5.3-1.96-1.71-4.45-1.2-6.55-.07-2.49,1.34-3.28,4.11-4.56,6.39-8.5,15.08-16.9,30.22-25.44,45.28-1.75,3.09-2.86,6.74-7.3,9.5h0Zm-340.7,3.66h.03c0,16.65-.03,33.31,.03,49.96,.01,2.88-.56,6.65,3.92,6.63,4.19-.02,4.14-3.75,4.27-6.59,.27-5.65,.15-11.32,.15-16.98,.01-26.98-.05-53.96,.05-80.94,.03-8.72,.27-8.85,9.06-9,7.33-.13,14.66,0,21.99-.06,2.92-.02,6.63,.58,6.67-3.88,.04-4.61-3.52-4.96-7.06-4.92-2,.02-4-.02-6-.02h-53.98c-4,0-8,.04-11.99,.06-3.37,.01-4.68,1.88-4.76,5.06-.09,3.4,2.22,3.66,4.66,3.67,8.33,.06,16.66-.06,24.99,.11,7.68,.16,7.87,.28,7.93,7.93,.13,16.32,.04,32.64,.04,48.96h0Z"/><path class="cls-9" d="M1401.04,820.45c-1.42,4.9-.86,9.2-.86,13.39-.03,185.91-.03,371.82-.03,557.73,0,3.33,.1,6.67-.06,9.99-.11,2.18,.7,5.1-2.37,5.87-3.23,.8-6.61,.93-9.81-.38-1.45-.59-1.5-2.1-1.54-3.4-.1-3-.13-5.99-.13-8.99-.02-195.9-.06-391.81-.02-587.71,0-14.1-2.66-14.54,14.75-14.44,7.33,.04,14.68,.32,21.99-.09,5.96-.33,9.84,1.94,13.45,6.62,20.96,27.17,42.4,53.98,63.17,81.3,5.14,6.76,10.43,9.53,19.1,9.45,49.32-.45,98.65-.22,147.97-.22,2.33,0,4.67-.15,7-.01,4.82,.29,6.39-2.11,6.33-6.64-.14-10.33-.02-20.66-.02-30.98,.01-17.32-.08-34.65,.07-51.97,.06-6.82,.86-7.52,7.57-7.23,11.81,.51,23.25,2.98,33.32,9.34,4.65,2.93,8.21,2.58,12.83,.24,11.42-5.8,23.62-8.68,36.51-9.26,17-.77,33.99-.49,50.98-.23,9.09,.14,9.98,1.12,10.01,10.66,.06,23.65,.02,47.31,.03,70.97,0,2.67,.14,5.34,.01,7.99-.23,4.86,1.48,7.7,6.85,7.19,.99-.1,2,0,3,0,52.99-.02,105.98-.14,158.97,.06,6.6,.03,10.97-1.85,15.09-7.24,20.43-26.74,41.65-52.88,61.83-79.8,5.93-7.91,12.2-11.26,21.79-10.27,6.6,.69,13.32,.22,19.98,.18,3.66-.02,5.6,1.56,5.62,5.32,.01,2.66,.13,5.33,.13,7.99,0,196.57,.01,393.14-.01,589.71,0,14.48,.34,12.17-12.45,12.27-19,.15-37.99,.1-56.99,0-8.91-.05-8.93-.2-9.1-8.69-.07-3.33-.02-6.66-.02-9.99,0-168.92,0-337.84-.03-506.75,0-4.27,.64-8.61-.83-13.44-4.47,.94-6.03,4.92-8.29,7.79-36.19,46.15-72.28,92.36-108.39,138.56-53.35,68.25-106.63,136.56-160.14,204.68-4.6,5.86-6.59,11.65-6.55,19.08,.26,47.98,.13,95.95,.14,143.93,0,2.66,.11,5.33,.08,7.99-.03,3.37,1.73,4.79,4.94,4.8,3,0,6,.1,9,.1h177.97c2.67,0,5.34,.1,8,0,4-.14,6.11,1.26,6.21,5.7,.1,4.21-1.4,6.14-5.6,6.09-3-.03-5.99,.17-8.99,.17h-455.92c-2.33,0-4.67-.11-7-.05-3.82,.1-6.3-.81-6.29-5.5,0-4.76,1.92-6.7,6.56-6.44,2.66,.15,5.33,0,8,0h232.96c2.67,0,5.33,.03,8-.01,9.75-.15,9.86-.15,9.87-10.07,.05-37.98-.06-75.96,.11-113.94,.03-5.65-1.58-10.13-5.06-14.58-112.14-143.25-224.17-286.58-336.25-429.88-1.81-2.31-3.19-5.11-7.39-7l-.05,.04Zm346.23,376.47c3.15-3.18,2.36-5.62,2.37-7.82,.06-25.65,.04-51.29,.04-76.94,0-38.3,.01-76.6-.01-114.91,0-9.65-.06-9.63-9.02-11.82-13.9-3.39-26.09-9.95-36.32-19.98-16.55-16.23-24.85-35.84-24.41-59.14,.18-9.62-.1-9.91-7.98-9.93-50.64-.08-101.28-.04-151.92,.01-1.83,0-4.12-.49-5.22,3.08,77.12,98.68,154.58,197.79,232.47,297.44h0Zm16.36,7.25c80.12-102.52,159.37-203.93,238.81-305.59-4.66-3.23-8.77-2.19-12.61-2.19-44-.08-88-.06-132-.05-16.02,0-13.99-.66-14.42,13.74-1.15,37.8-27.39,68.76-63.51,75.9-5.75,1.14-13.48-1.24-16.86,3.61-3.44,4.93-1.08,12.29-1.12,18.58-.05,7.45-.61,14.98,.67,23.59,8.22-5.06,15.28-9.87,23.83-10.04,16.99-.32,33.99-.13,50.99-.31,4.97-.05,6.51,2.44,6.03,6.86-.61,5.65-1.68,11.23-4.23,16.36-7.85,15.77-20.67,24.01-38.24,24.49-10.99,.3-22,.17-33,.11-4.06-.02-6.32,1.47-6.08,5.82,.09,1.66-.03,3.33-.03,5,0,37.99-.01,75.97,.02,113.96,0,2.62-.43,5.31,1.76,10.16h-.01Zm-13.96-285.33c0-14.98,.2-29.96-.05-44.94-.3-17.88-5.69-34.04-17.64-47.66-5.17-5.88-6.14-5.97-12.04-.6-13.41,12.2-22.66,26.88-26.24,44.88-3.08,15.52-2.61,31.25-1.22,46.76,2.32,25.93,23.24,49.5,47.86,55.75,8.07,2.04,9.25,1.23,9.3-7.26,.11-15.64,.03-31.29,.02-46.94h.01Zm11.78-24.6c9.48-5.2,17.83-4.49,26.09-4.49s16.63-.12,24.94,.02c4.37,.08,6.91-1.19,6.9-6.11-.08-24.27-.05-48.54-.02-72.81,0-3.96-1.41-6.32-5.74-6.34-17.95-.06-35.98-1.35-53.78,1.61-7.55,1.26-15.51,2.57-22.01,8.95,21.35,21.78,25.17,48.7,23.61,79.17h.01Zm.42,34.34c0,14.65,.06,27.92-.04,41.18-.03,4.3,1.89,6.08,6.06,5.72,1.99-.17,3.99-.22,5.96-.52,35.23-5.34,59.68-35.62,57.86-71.23-.26-5.06-1.95-7.25-7.02-7.21-15.97,.11-31.94,.05-47.92,.1-1.31,0-2.65,.25-3.94,.57-7.57,1.86-11.76,7.86-10.9,15.53,.77,6.92,6.4,12.18,13.39,12.51,6.62,.31,12.96-4.64,14.34-11.51,.45-2.24,.18-4.63,.26-6.95,.05-1.44,.64-2.5,2.18-2.78,1.9-.34,3.22,.41,3.93,2.16,1.03,2.53,1.14,5.14,.73,7.84-1.78,11.86-13.7,19.98-25.89,17.47-2.56-.53-5.01-1.58-9-2.87h0Zm67.49,104.75c-14.99,.14-29.85-1.24-44.55,.81-9.73,1.35-16.67,7.84-20.7,16.92-1.97,4.45-1.02,5.93,4.04,6.12,6.29,.24,12.6,.13,18.91,.08,5.97-.05,12,.3,17.88-.44,13.25-1.67,22.14-10.14,24.42-23.49h0Zm-137.44-196.61c.74,.34,1.48,.68,2.22,1.01,5.81-9.13,13.32-16.8,21.39-24.55-6.39-4.44-12.33-6.33-18.59-7.43-3.26-.57-5.07,.54-5.04,4.13,.06,8.94,.02,17.89,.02,26.83h0Z"/><path class="cls-6" d="M1313.06,1703.85c-4.3,2.68-5.59,6.57-7.51,9.83-40.53,68.52-80.98,137.08-121.51,205.6-1.98,3.35-3.01,8.31-7.27,9.02-6.86,1.15-14,1.28-20.86-.14-3.47-.72-4.43-4.73-6.09-7.54-20.7-34.97-41.34-69.97-62-104.97-20.15-34.13-40.27-68.28-60.46-102.39-1.79-3.02-3.06-6.54-6.1-8.65-3.08,1.59-2.36,4.14-2.47,6.3-.14,2.99-.05,5.99-.05,8.99v411.75c0,10.16-5.03,15.23-15.1,15.22-13.99-.02-13.21,.7-13.21-12.9v-466.72c0-13.16,.02-13.28,12.96-13.15,6.97,.07,14.73-2.17,20.69,1.07,6.36,3.46,8.43,11.66,12.12,17.91,41.2,69.67,82.28,139.41,123.46,209.09,1.97,3.34,3.13,7.41,7.04,9.45,3.63-2.34,4.91-6.28,6.88-9.63,42.86-72.56,85.77-145.08,128.25-217.86,4.47-7.66,9.23-11.34,18.08-10.2,5.25,.68,10.66,.36,15.98,.09,4.89-.25,6.56,2.02,6.38,6.53-.11,2.66,.07,5.33,.07,7.99,0,154.57,.03,309.15-.03,463.72,0,17.34,1.05,14.4-14.23,14.55-15.48,.16-13.91,1.06-13.92-14.03-.03-138.58-.01-277.17-.05-415.75,0-4.14,.67-8.42-1.05-13.19h0Z"/><path class="cls-9" d="M2218.54,2146.23c-10.01,1.18-19.3,.4-28.56,.6-4.53,.1-6.19-3.39-8.29-6.29-14.46-19.97-28.89-39.96-43.32-59.95-44.46-61.59-88.63-123.39-133.62-184.6-8.18-11.12-6.19-22.46-6.36-34.17-.04-2.44,1.94-3.38,4.07-3.52,2.99-.2,5.99-.22,8.99-.22,29.33-.03,58.66,.26,87.98-.13,35.52-.47,61.85-17.35,78.84-47.85,28.6-51.32-7.1-119.82-65.46-126.66-5.94-.7-11.96-.99-17.95-1-37.33-.09-74.65-.05-111.98-.05-1.67,0-3.34-.04-5,.05-6.95,.41-7.38,.79-7.68,7.44-.14,2.99-.04,6-.04,8.99,0,144.59,.01,289.19-.02,433.78,0,15.32,1.5,14.18-13.79,14.17-16.22,0-14.36,1.22-14.37-14.6-.04-154.59-.04-309.18,0-463.77,0-15.26-2.08-14.42,14.59-14.42,45.99-.02,91.98,0,137.98,0,12.71,0,25.28,1.05,37.59,4.49,46.84,13.07,79.83,54.67,83.99,103.47,5.75,67.49-50.73,120.73-107.25,123.91-20.31,1.14-40.65,.19-60.97,.59-3.85,.08-9.18-1.85-11.18,1.71-2.09,3.72,2.58,6.93,4.8,10.01,56.88,78.93,113.83,157.8,170.71,236.72,2.28,3.16,5.4,5.91,6.3,11.28v.02Z"/><path class="cls-6" d="M1722.35,1900.67c0,36.31,.7,72.64-.19,108.92-.93,37.85-14.76,71.14-42,97.58-41.11,39.89-90.38,51.97-144.75,34.84-54.26-17.1-85.87-56.07-97.43-111.5-1.77-8.51-2.41-17.14-2.41-25.82,0-69.62-.25-139.25,.11-208.87,.21-39.75,13.93-74.68,42.59-102.41,40.87-39.55,89.88-51.51,143.9-34.66,54.31,16.94,86.05,55.8,97.83,111.17,2.3,10.82,2.55,21.81,2.55,32.81v97.94h-.2Zm-28.06-.11h.06v-99.97c0-9.01-.46-17.96-2.2-26.84-17.59-89.68-118.08-119.06-182.33-71.15-30.63,22.84-45.61,54.5-45.93,92.31-.6,70.3-.17,140.62-.18,210.92,0,7.36,.71,14.65,2.28,21.83,9.54,43.52,34.46,74.21,77.35,87.57,43.56,13.57,83.29,4.71,116.55-27.04,23.04-21.99,33.85-50.02,34.28-81.68,.48-35.31,.11-70.64,.11-105.96h0Z"/><path class="cls-9" d="M2505.36,2146.88h-3c-10.11-.07-10.15-.06-12.55-9.78-13.25-53.64-26.48-107.29-39.71-160.94-.4-1.62-.93-3.21-1.16-4.85-.76-5.5-3.49-7.74-9.37-7.71-40.32,.22-80.63,.07-120.95,.15-7.86,.01-7.96,.2-10.17,9.14-9.5,38.46-18.93,76.93-28.38,115.4-4.05,16.49-8.07,32.98-12.15,49.46-2.23,9-2.27,9.01-11.1,9.13-3.66,.05-7.33,.09-10.99-.02-7.96-.23-8.15-.36-6.38-7.91,3.65-15.56,7.44-31.08,11.23-46.6,34.53-141.31,69.01-282.62,103.68-423.89,3.93-16,.55-14.24,17.94-14.38,6.33-.05,12.66-.06,18.99,0,8.66,.1,8.74,.12,10.76,8.24,4.65,18.74,9.24,37.49,13.82,56.25,33.64,137.75,67.28,275.5,100.87,413.27,3.91,16.03,6.06,14.98-11.39,15.04h0Zm-65.42-211.87c-20.2-82.79-40.04-164.15-59.89-245.5-.75-.02-1.5-.03-2.25-.05-19.89,81.6-39.77,163.19-59.85,245.56h121.99Z"/><path class="cls-9" d="M1845.58,1900.67v233.83c0,12.34-.04,12.54-12.72,12.32-14.58-.26-15.72,4-15.71-15.57,.05-153.89,.07-307.78-.03-461.67-.01-19.45,2.35-15.3,16.12-15.48,12.32-.16,12.35,0,12.35,12.74v233.83h-.01Z"/><path class="cls-8" d="M1738.47,1351.83c-4.38-1.86-5.87-4.99-7.86-7.54-104.42-133.55-208.72-267.2-313.4-400.55-7-8.91-7.39-17.55-6.21-28.01,4.73,1.26,6.16,4.94,8.29,7.66,73.49,93.9,146.91,187.85,220.34,281.79,30.77,39.36,61.27,78.94,92.48,117.95,7.01,8.76,8.22,17.5,6.36,28.7h0Z"/><path class="cls-3" d="M1203.69,2268.16c9.13,5.54,15.09,12.68,17.3,22.78,4.09,18.75-5.44,34.12-24.1,38.25-3.24,.72-6.57,1.39-9.86,1.44-13.64,.2-27.29,.07-40.93,.23-4.13,.05-6.22-1.49-6.15-5.73,.04-2.33-.16-4.65-.16-6.98-.01-32.27-.01-64.54,0-96.81,0-2.33,.04-4.66,.19-6.98,.25-3.8,1.79-6.23,6.14-6.15,14.3,.24,28.65-.96,42.9,.62,20.06,2.22,31.93,18.23,28.76,38.04-1.22,7.61-3.88,11.74-14.07,21.3h-.02Zm-55.57,28.5h-.03c0,4.99-.05,9.99,.01,14.98,.11,9.53,.13,9.61,9.17,9.69,9.32,.08,18.65-.03,27.98-.02,4.71,0,9.3-.72,13.73-2.3,9.85-3.53,14.95-11.08,14.59-21.42-.48-13.61-9.69-23.34-24.29-24.29-11.61-.75-23.3-.19-34.95-.38-4.86-.08-6.37,2.31-6.24,6.77,.17,5.66,.04,11.32,.04,16.98h-.01Zm22.71-33.25v-.24c6.33,0,12.71,.51,18.98-.1,16.18-1.58,24.37-14.94,18.86-30.28-3.54-9.87-11.05-15.06-21.14-15.68-10.96-.68-21.98-.25-32.97-.43-4.65-.08-6.55,1.96-6.48,6.6,.15,10.99-.09,21.99,.08,32.98,.11,6.86,.32,6.93,7.68,7.13,4.99,.14,10,.03,15,.03h-.01Z"/><path class="cls-7" d="M1465.6,2329.21c-6.16,3.37-9.81,.94-13.19-3.4-9-11.57-18.33-22.88-27.15-34.58-3.54-4.7-7.43-7.16-13.41-6.66-4.63,.39-9.32,.22-13.98,.12-4.7-.11-6.51,2.19-6.47,6.7,.08,9.66,0,19.32-.06,28.97-.01,2.32-.04,4.67-.38,6.96-.33,2.28-1.97,3.37-4.25,3.28-2.31-.09-3.7-1.39-3.95-3.67-.21-1.98-.25-3.99-.25-5.98-.01-33.97-.04-67.94,0-101.91,.01-10.58,.28-10.85,10.47-10.94,11.66-.1,23.32-.02,34.98,0,15.56,.02,27.19,6.61,32.91,21.32,6.06,15.59,5.12,30.72-5.89,44.19-3.44,4.21-8.14,6.71-13.26,8.59-2.72,1-6.01,.53-8.98,3.59,9.63,15.24,22.87,27.95,32.86,43.4v.02Zm-50.53-111.82c-5.99,0-11.99,.04-17.98-.02-3.67-.04-5.62,1.63-5.62,5.33-.02,15.64-.02,31.29-.01,46.93,0,3.61,1.66,5.52,5.46,5.49,11.98-.1,23.98,.24,35.95-.32,7.26-.34,13.7-3.62,17.35-10.25,6.58-11.94,6.82-24.2-.14-36.08-4.15-7.09-10.79-10.73-19.02-11.04-5.32-.2-10.65-.04-15.98-.04h0Z"/><path class="cls-7" d="M2223.18,2284.69c12.24,15.58,23.28,29.61,34.39,43.76-7.65,3.37-8.12,3.45-12.69-2.2-9.01-11.13-18.17-22.18-26.57-33.76-4.44-6.13-9.49-8.75-16.85-7.91-3.62,.41-7.33,.24-10.98,.09-5.06-.21-7.2,2.03-7.13,7.1,.14,9.66,.03,19.32-.04,28.98-.02,2.32-.08,4.67-.47,6.95-.3,1.77-1.68,2.78-3.54,2.91-2.28,.16-4.02-.78-4.41-3.05-.39-2.28-.41-4.64-.41-6.96-.02-33.97-.05-67.95,0-101.92,.02-10.22,.33-10.49,10.85-10.56,11.33-.08,22.66,.03,33.98-.01,15.03-.06,26.74,5.72,32.87,19.89,6.66,15.4,6.07,30.55-4.22,44.44-5.45,7.36-13.69,10.17-24.81,12.27l.03-.02Zm-39.8-38.13h.03c0,7.32,.07,14.64-.03,21.97-.06,4.46,1.57,6.76,6.41,6.68,11.32-.2,22.65,.19,33.95-.26,8.05-.32,15.03-3.72,18.93-11.14,5.97-11.35,6.21-23.04-.01-34.38-4.12-7.52-10.85-11.74-19.51-11.96-10.98-.27-21.97,.06-32.96-.17-5.37-.11-6.95,2.49-6.86,7.3,.13,7.32,.03,14.64,.03,21.97h.02Z"/><path class="cls-5" d="M1570.69,2268.13c-2.93-2.38-5.07-3.94-7.01-5.73-16.22-14.93-12.2-41.86,7.86-50.98,12.36-5.62,25.27-5.74,37.99-1.15,9.61,3.47,16.35,13.76,16.1,23.26-.05,1.91-.56,3.28-2.64,3.38-1.89,.09-4.31,.74-4.7-2.13-.89-6.54-2.93-12.35-9.1-15.77-7.68-4.26-16.03-4.05-24.36-3.2-2.93,.3-5.91,1.2-8.64,2.36-8.75,3.69-13.72,10.23-14.24,19.9-.54,10,3.6,17.37,12.46,22.07,5.76,3.05,12.03,3.79,18.41,3.83,10.66,.07,21.32,.03,31.98,.06,2.33,0,4.66,.07,6.99,.11,2.41,.04,3.64,1.46,3.94,3.66,.27,1.91-.74,3.45-2.61,3.56-5.7,.34-5.97,4.22-5.9,8.45,.14,8.65,.09,17.32,.48,25.96,.31,6.84,1.86,13.26,8.82,16.76,1.51,.76,2.66,1.99,3.05,3.75,.62,2.85-.14,4.73-3.45,4.26-3.41-.49-6.15-2.26-8.58-4.72-2.08-2.11-2.67-5.38-5.37-6.9-.72,.19-1.51,.16-1.9,.54-13.47,13.03-32.44,16.45-49.65,8.91-20.92-9.17-25.35-37.48-8.3-53.42,2.41-2.25,5.13-4.18,8.39-6.81h-.02Zm31.04,3.64c-3.65,0-7.31-.15-10.95,.03-6.01,.3-11.86,1.41-17.21,4.37-9.62,5.32-14.62,14.99-13.36,25.72,1.23,10.45,7.76,17.63,18.98,20.4,7.18,1.77,14.53,1.84,21.72,.18,12.25-2.84,18.59-10.77,19.1-23.34,.12-2.98,.05-5.97,.05-8.96,0-12.33-6.11-18.46-18.33-18.41h0Z"/><path class="cls-4" d="M1766.58,2330.89c-9.66,0-19.32,.14-28.98-.05-6.91-.14-7.32-.52-7.38-7.54-.14-17.98-.06-35.96-.06-53.95s-.07-35.3,.05-52.95c.05-7.63,.39-8.09,7.83-8.15,19.32-.17,38.64-.07,57.96-.05,1.33,0,2.67,.09,3.98,.29,2.89,.44,3.71,2.38,3.56,5.04-.14,2.45-1.55,3.59-3.82,3.67-3.33,.13-6.66,.15-9.99,.15-14.66,.03-29.31,.13-43.97,0-4.95-.04-7.38,1.75-7.32,6.93,.13,10.99-.13,21.98,.09,32.97,.13,6.53,.91,7.28,7.81,7.39,13.32,.22,26.65,.08,39.97,.1,2.66,0,5.33-.04,7.99,.08,2.79,.13,5.64,.59,5.45,4.29-.18,3.52-3.04,4.13-5.78,4.15-13.66,.12-27.31,.08-40.97,.17-15.26,.09-14.55-1.43-14.58,14.65-.01,7.66-.05,15.32,.01,22.98,.09,10.18,.13,10.23,10.73,10.27,15.32,.05,30.65,0,45.97,.03,2.33,0,4.67,.03,6.98,.26,2.46,.24,3.21,2.04,3.26,4.23,.05,2.14-.52,4.15-2.85,4.6-2.26,.44-4.63,.43-6.95,.44-9.66,.04-19.32,.02-28.98,.02v-.02h-.01Z"/><path class="cls-4" d="M2062.12,2269.22c0-17.65-.08-35.3,.04-52.95,.05-7.52,.41-7.97,7.94-8.03,19.32-.17,38.64-.07,57.96-.03,1.65,0,3.39,.07,4.93,.58,2.22,.74,2.71,2.7,2.48,4.86-.2,1.83-1.03,3.21-2.98,3.38-2.65,.22-5.31,.31-7.97,.32-15.32,.03-30.65-.08-45.97,.08-7.6,.08-7.98,.48-8.1,7.91-.17,10.32-.18,20.65,0,30.97,.14,7.7,.72,8.26,8.89,8.37,12.66,.17,25.32,.06,37.97,.07,2,0,4.01-.16,5.99,.04,3.36,.34,8.52-1.2,8.25,4.4-.25,5.19-5.28,4.12-8.71,4.16-13.99,.15-27.98,.02-41.97,.1-10.33,.06-10.38,.14-10.47,10.71-.07,8.66-.05,17.32,0,25.97,.05,11.11,.08,11.16,10.78,11.19,15.32,.05,30.65,0,45.97,.03,2.33,0,4.67,.03,6.98,.27,2.48,.27,3.14,2.16,3.17,4.3,.02,2.13-.59,4.09-2.94,4.56-1.94,.39-3.97,.4-5.96,.4-18.99,.03-37.97,.08-56.96-.01-9.16-.05-9.26-.18-9.3-9.71-.08-17.32-.02-34.63-.02-51.95h0Z"/><path class="cls-5" d="M1883.54,2300.92c-8.33,0-16.66,.2-24.98-.08-4.79-.16-7.29,1.78-8.77,6.21-2,5.99-4.45,11.84-6.81,17.71-.84,2.1-1.24,4.6-3.8,5.56-1.63,.62-3.41,.72-4.84-.11-1.77-1.02-1.28-2.82-.7-4.43,.57-1.56,1.15-3.12,1.76-4.67,13.49-34.75,26.99-69.51,40.49-104.26,.6-1.55,1.33-3.06,1.86-4.63,1.02-3.01,3.22-3.98,6.18-3.96,3.03,.02,5.04,1.37,6.1,4.2,.58,1.56,1.24,3.09,1.85,4.64,13.39,34.44,26.78,68.88,40.16,103.31,.6,1.55,1.31,3.07,1.75,4.67,.52,1.87,1.4,4.24-.99,5.23-2.63,1.09-5.44,.71-6.76-2.32-2.13-4.88-3.97-9.88-6-14.81-5.61-13.67-2.4-12.1-17.51-12.29-6.33-.08-12.66-.01-18.99-.01v.03h0Zm1.62-79.34c-.98,.06-1.96,.13-2.94,.19-8.66,22.79-17.32,45.59-26.27,69.14h55.68c-9.1-23.83-17.78-46.58-26.47-69.34h0Z"/><path class="cls-5" d="M1348.11,2326.49c.43,3.31-1,4.16-3.38,4.28-3.31,.17-4.69-1.92-5.72-4.55-2.18-5.57-4.37-11.14-6.58-16.69-3.26-8.18-1.83-8.59-11.97-8.62-15.63-.05-31.27,.18-46.89-.11-5.49-.1-8.61,1.59-10.27,7.01-1.84,6.02-4.49,11.79-6.76,17.68-.85,2.2-1.59,4.53-4.26,5.07-1.59,.32-3.35,.51-4.69-.81-1.14-1.12-.64-2.44-.2-3.68,.67-1.88,1.36-3.75,2.08-5.6,13.36-34.38,26.73-68.76,40.1-103.14,.84-2.17,1.45-4.5,2.69-6.43,2.41-3.76,8.41-3.65,10.88,.11,.9,1.36,1.35,3.02,1.95,4.57,13.84,35.62,27.68,71.24,41.51,106.87,.6,1.54,1.16,3.1,1.51,4.04h0Zm-49.29-105.38l-2.58,.23c-8.71,22.85-17.43,45.71-26.71,70.06,19.27,.12,36.88,.38,56.05-.19-9.36-24.52-18.06-47.31-26.76-70.11h0Z"/><path class="cls-3" d="M2324.74,2270.27c4.44-2.76,5.55-6.41,7.3-9.5,8.54-15.06,16.95-30.19,25.44-45.28,1.29-2.29,2.07-5.06,4.56-6.39,2.1-1.13,4.59-1.64,6.55,.07,2.1,1.83,.18,3.7-.72,5.3-11.1,19.73-22.17,39.48-33.49,59.08-3.1,5.36-4.76,10.72-4.54,16.98,.35,9.98,.11,19.98,.08,29.97,0,2.33-.08,4.66-.27,6.98-.16,1.91-1.42,2.85-3.28,3.11-1.97,.28-3.09-.72-3.81-2.4-1.09-2.53-.97-5.21-.98-7.87-.02-8.99-.32-17.99,.08-26.97,.34-7.6-1.47-14.2-5.34-20.8-10.94-18.67-21.42-37.6-31.91-56.53-1.12-2.02-4.29-4.19-1.48-6.98,2.13-2.11,6.95-.58,9.09,3.16,7.6,13.3,14.96,26.72,22.45,40.08,3.24,5.78,6.57,11.52,10.27,17.98h0Z"/><path class="cls-5" d="M1984.04,2273.94c0-16.32,.09-32.64-.04-48.96-.06-7.65-.24-7.77-7.93-7.93-8.33-.17-16.66-.05-24.99-.11-2.44-.02-4.75-.27-4.66-3.67,.08-3.18,1.39-5.04,4.76-5.06,4-.02,8-.06,11.99-.06h53.98c2,0,4,.03,6,.02,3.55-.03,7.1,.32,7.06,4.92-.04,4.46-3.74,3.86-6.67,3.88-7.33,.06-14.66-.06-21.99,.06-8.78,.15-9.02,.28-9.06,9-.1,26.98-.04,53.96-.05,80.94,0,5.66,.11,11.33-.15,16.98-.13,2.83-.09,6.57-4.27,6.59-4.48,.02-3.91-3.76-3.92-6.63-.07-16.65-.03-33.31-.03-49.96h-.03Z"/><path class="cls-13" d="M1747.27,1196.92c-77.89-99.65-155.35-198.76-232.47-297.44,1.1-3.56,3.39-3.07,5.22-3.08,50.64-.05,101.28-.1,151.92-.01,7.89,.01,8.16,.3,7.98,9.93-.44,23.31,7.86,42.92,24.41,59.14,10.23,10.03,22.42,16.58,36.32,19.98,8.95,2.19,9.01,2.17,9.02,11.82,.02,38.3,.01,76.6,.01,114.91,0,25.65,.02,51.29-.04,76.94,0,2.2,.78,4.64-2.37,7.82h0Z"/><path class="cls-13" d="M1763.63,1204.17c-2.19-4.85-1.76-7.54-1.76-10.16-.03-37.99-.02-75.97-.02-113.96,0-1.67,.12-3.34,.03-5-.23-4.35,2.02-5.84,6.08-5.82,11,.06,22,.19,33-.11,17.57-.48,30.39-8.71,38.24-24.49,2.55-5.14,3.62-10.71,4.23-16.36,.48-4.42-1.05-6.91-6.03-6.86-17,.18-34-.01-50.99,.31-8.55,.16-15.61,4.98-23.83,10.04-1.28-8.61-.72-16.14-.67-23.59,.04-6.29-2.32-13.64,1.12-18.58,3.38-4.84,11.11-2.47,16.86-3.61,36.12-7.14,62.35-38.1,63.51-75.9,.44-14.4-1.59-13.74,14.42-13.74,44-.02,88-.03,132,.05,3.84,0,7.95-1.03,12.61,2.19-79.44,101.65-158.69,203.06-238.81,305.59h.01Z"/><path class="cls-14" d="M1749.68,918.83c0,15.65,.08,31.29-.02,46.94-.06,8.49-1.24,9.3-9.3,7.26-24.62-6.24-45.55-29.81-47.86-55.75-1.39-15.52-1.86-31.24,1.22-46.76,3.57-18,12.82-32.68,26.24-44.88,5.9-5.37,6.87-5.28,12.04,.6,11.95,13.61,17.34,29.77,17.64,47.66,.25,14.98,.05,29.96,.06,44.94h-.02Z"/><path class="cls-11" d="M1761.45,894.22c1.56-30.47-2.26-57.39-23.61-79.17,6.5-6.38,14.46-7.69,22.01-8.95,17.8-2.96,35.83-1.67,53.78-1.61,4.33,.01,5.74,2.38,5.74,6.34-.04,24.27-.07,48.54,.02,72.81,.02,4.92-2.52,6.19-6.9,6.11-8.31-.15-16.63-.03-24.94-.02-8.27,0-16.62-.71-26.09,4.49h-.01Z"/><path class="cls-12" d="M1761.87,928.56c3.99,1.29,6.44,2.34,9,2.87,12.19,2.51,24.11-5.61,25.89-17.47,.41-2.7,.3-5.31-.73-7.84-.71-1.75-2.03-2.51-3.93-2.16-1.55,.28-2.13,1.34-2.18,2.78-.08,2.32,.19,4.71-.26,6.95-1.39,6.87-7.72,11.82-14.34,11.51-6.99-.33-12.62-5.59-13.39-12.51-.86-7.66,3.34-13.67,10.9-15.53,1.28-.32,2.62-.57,3.94-.57,15.97-.05,31.95,.01,47.92-.1,5.08-.04,6.77,2.16,7.02,7.21,1.82,35.61-22.63,65.89-57.86,71.23-1.97,.3-3.97,.34-5.96,.52-4.17,.36-6.09-1.42-6.06-5.72,.1-13.26,.04-26.53,.04-41.18h0Z"/><path class="cls-12" d="M1829.36,1033.32c-2.28,13.35-11.17,21.82-24.42,23.49-5.89,.74-11.92,.39-17.88,.44-6.3,.05-12.61,.16-18.91-.08-5.05-.2-6.01-1.67-4.04-6.12,4.02-9.08,10.97-15.57,20.7-16.92,14.7-2.04,29.56-.66,44.55-.81h0Z"/><path class="cls-12" d="M1691.92,836.71c0-8.94,.04-17.89-.02-26.83-.02-3.59,1.79-4.7,5.04-4.13,6.25,1.1,12.2,2.98,18.59,7.43-8.07,7.75-15.58,15.42-21.39,24.55-.74-.34-1.48-.68-2.22-1.01h0Z"/><path class="cls-10" d="M1694.28,1900.56c0,35.32,.37,70.65-.11,105.96-.43,31.66-11.24,59.68-34.28,81.68-33.26,31.75-72.99,40.61-116.55,27.04-42.89-13.36-67.81-44.06-77.35-87.57-1.57-7.18-2.28-14.47-2.28-21.83,.01-70.31-.42-140.62,.18-210.92,.32-37.81,15.3-69.47,45.93-92.31,64.25-47.91,164.74-18.53,182.33,71.15,1.74,8.89,2.21,17.83,2.2,26.84-.01,33.32,0,66.64,0,99.97h-.07Z"/><path class="cls-13" d="M2439.95,1935.01h-121.99c20.07-82.36,39.96-163.96,59.85-245.56,.75,.02,1.5,.03,2.25,.05,19.85,81.36,39.69,162.71,59.89,245.5h0Z"/><path class="cls-13" d="M1148.12,2296.66c0-5.66,.13-11.32-.04-16.98-.13-4.45,1.38-6.85,6.24-6.77,11.65,.2,23.34-.37,34.95,.38,14.6,.95,23.82,10.68,24.29,24.29,.36,10.34-4.75,17.89-14.59,21.42-4.42,1.59-9.01,2.31-13.73,2.3-9.33-.01-18.65,.1-27.98,.02-9.04-.08-9.06-.16-9.17-9.69-.06-4.99-.01-9.99-.01-14.98h.04Z"/><path class="cls-13" d="M1170.83,2263.42c-5,0-10,.11-15-.03-7.36-.2-7.57-.27-7.68-7.13-.17-10.99,.07-21.99-.08-32.98-.06-4.65,1.83-6.68,6.48-6.6,10.99,.18,22.01-.25,32.97,.43,10.09,.63,17.6,5.81,21.14,15.68,5.5,15.35-2.68,28.7-18.86,30.28-6.27,.61-12.65,.1-18.98,.1v.24h.01Z"/><path class="cls-13" d="M1415.07,2217.39c5.33,0,10.66-.16,15.98,.04,8.24,.31,14.88,3.95,19.02,11.04,6.96,11.88,6.72,24.14,.14,36.08-3.65,6.64-10.1,9.92-17.35,10.25-11.96,.55-23.96,.21-35.95,.32-3.8,.03-5.45-1.88-5.46-5.49,0-15.64,0-31.29,.01-46.93,0-3.7,1.95-5.37,5.62-5.33,5.99,.06,11.99,.02,17.98,.02h0Z"/><path class="cls-13" d="M2183.38,2246.56c0-7.32,.1-14.65-.03-21.97-.09-4.81,1.49-7.42,6.86-7.3,10.98,.24,21.98-.1,32.96,.17,8.66,.21,15.38,4.43,19.51,11.96,6.22,11.34,5.98,23.04,.01,34.38-3.9,7.42-10.89,10.82-18.93,11.14-11.3,.45-22.64,.06-33.95,.26-4.84,.08-6.47-2.22-6.41-6.68,.1-7.32,.03-14.64,.03-21.97h-.05Z"/><path class="cls-14" d="M1601.73,2271.78c12.23-.05,18.34,6.08,18.33,18.41,0,2.99,.07,5.98-.05,8.96-.51,12.57-6.85,20.5-19.1,23.34-7.19,1.66-14.54,1.59-21.72-.18-11.22-2.77-17.75-9.95-18.98-20.4-1.27-10.73,3.74-20.4,13.36-25.72,5.35-2.96,11.2-4.07,17.21-4.37,3.64-.18,7.3-.03,10.95-.03h0Z"/><path class="cls-11" d="M1885.17,2221.57c8.69,22.75,17.37,45.5,26.47,69.34h-55.68c8.95-23.56,17.61-46.35,26.27-69.14,.98-.06,1.96-.13,2.94-.19h0Z"/><path class="cls-11" d="M1298.83,2221.11c8.7,22.79,17.4,45.59,26.76,70.11-19.17,.57-36.78,.31-56.05,.19,9.28-24.35,18-47.21,26.71-70.06l2.58-.23h0Z"/></g></g></svg>