<?xml version="1.0" encoding="utf-8"?>
<!-- Generator: Adobe Illustrator 27.5.0, SVG Export Plug-In . SVG Version: 6.00 Build 0)  -->
<svg version="1.1" id="Layer_1" xmlns="http://www.w3.org/2000/svg" xmlns:xlink="http://www.w3.org/1999/xlink" x="0px" y="0px"
	 viewBox="0 0 1500 1500" style="enable-background:new 0 0 1500 1500;" xml:space="preserve">
<style type="text/css">
	.st0{fill:#C59949;}
</style>
<g>
	<g>
		<g>
			<g>
				<polygon class="st0" points="375.6,1246.01 399.46,1246.01 399.46,828.06 370.22,828.06 250.21,1031.65 130.17,828.06 
					100.94,828.06 100.94,1246.01 124.82,1246.01 124.82,865.66 240.04,1060.92 260.36,1060.92 375.6,865.66 				"/>
			</g>
			<g>
				<g>
					<path class="st0" d="M600.24,826.01c-67.18,0-121.87,53.53-121.87,124.83v172.38c0,71.34,54.7,124.83,121.87,124.83
						s121.87-53.49,121.87-124.83V950.84C722.11,879.54,667.41,826.01,600.24,826.01z M698.32,1123.22
						c0,59.47-43.97,101.07-98.08,101.07c-54.08,0-98.08-41.6-98.08-101.07V950.84c0-59.44,44-101.07,98.08-101.07
						c54.11,0,98.08,41.63,98.08,101.07V1123.22z"/>
				</g>
			</g>
			<g>
				<rect x="802.34" y="828.06" class="st0" width="23.89" height="417.95"/>
			</g>
			<g>
				<path class="st0" d="M908.28,828.06v417.95h23.89V851.91h110.45c40.61,0,74.64,31.66,74.64,77.62
					c0,35.84-34.03,71.66-74.64,71.66h-86.57v23.89l159.42,220.93h29.26l-159.42-220.93h57.3c54.35,0,98.52-46.57,98.52-95.54
					c0-59.08-44.17-101.47-98.52-101.47H908.28z"/>
			</g>
			<g>
				<g>
					<path class="st0" d="M1296.98,828.06h-35.81L1159.06,1246h23.85l38.22-155.22h115.83l38.22,155.22h23.89L1296.98,828.06z
						 M1227.11,1066.89l51.93-213.16l51.97,213.16H1227.11z"/>
				</g>
			</g>
		</g>
	</g>
	<g>
		<polygon class="st0" points="736.08,555.08 736.08,574.03 724.48,559.17 468.94,232.14 457.34,217.25 457.34,198.3 468.94,213.16 
			724.48,540.19 		"/>
		<path class="st0" d="M1061.66,96.66h-31c-0.49,0-0.94,0.16-1.24,0.55l-63.86,81.73H824.41v0.1h-10.27V96.76
			c-12.09,0.42-52.42-1.27-63.63,1.59c-0.03,0-0.1,0-0.19,0.06c-1.5,0.29-2.99,0.65-4.52,1.11c-0.65,0.13-1.3,0.29-1.95,0.55
			c-2.93,0.78-5.72,1.89-8.52,2.99c-2.01,0.91-4.03,1.82-5.95,2.86c-1.17,0.55-2.24,1.2-3.35,1.85c-0.13,0.03-0.19,0.1-0.26,0.1
			c-11.67-8.45-25.64-11.77-39.84-11.12v98.63c-0.52,33.08,26.23,62.85,59.05,66.14v180.92l-2.63-3.38l-198.7-254.3h142.22v-5.82
			H539.14l-6.63-8.42l-57.23-73.25c-0.29-0.39-0.75-0.59-1.27-0.59h-35.68c-0.81,0-1.59,0.68-1.59,1.59l0.06,486.93v32.24
			c0,0.94,0.72,1.62,1.62,1.62h8.42c0.85,0,1.59-0.68,1.59-1.62V117.04l216.57,277.28l0.07,0.07l0.03,0.07l4.68,5.98l32.6,41.73
			l11.93,15.18l-40.66-52l71.34,91.09v112.54H520.03v10.08H930.3v-10.08H755.26V466.7L967.8,194.71l7.77-9.94l1.33-1.79l10.07-12.84
			l9.59-12.22v459.5c0,0.91,0.68,1.62,1.59,1.62h63.5c0.88,0,1.59-0.71,1.59-1.62V98.22C1063.25,97.31,1062.53,96.66,1061.66,96.66z
			 M695.95,107.03c7.34,0.71,14.43,3.05,20.86,6.95c-0.49,0.39-0.94,0.75-1.46,1.27c-2.89,2.34-5.65,5-8.19,7.74
			c-0.26,0.26-0.49,0.55-0.71,0.81c-4.06,4.55-7.54,9.43-10.5,14.75V107.03z M744.99,251.39c-27.2-3.38-48.52-27.04-49.01-54.34
			c-0.1-1.17-0.03-4.52-0.03-5.69c-0.03-8.35-0.52-18.82,1.2-26.88c1.82-11.63,7.44-22.91,14.95-31.91c0.91-1.1,1.85-2.18,2.79-3.22
			c0.75-0.81,1.5-1.56,2.28-2.31c1.5-1.53,3.12-2.96,4.71-4.26c0.81-0.62,1.69-1.3,2.53-1.95c0.26-0.23,0.55-0.46,0.88-0.59
			c12.67,11.28,19.69,27.88,19.69,45.43V251.39z M736.37,117.1c-0.75-0.81-1.56-1.62-2.27-2.37c0.91-0.42,1.72-0.91,2.63-1.3
			c0.81-0.42,1.66-0.78,2.5-1.11c3.22-1.43,6.47-2.47,9.91-3.35c1.07-0.29,2.15-0.55,3.25-0.75c0.07-0.07,0.16-0.07,0.2-0.07
			c0.68-0.13,1.3-0.23,1.98-0.36c8.32-1.98,40.56-0.78,49.56-1.11v72.41h-36.85c-4.74,0-9.07,1.85-12.28,4.87v-18.3
			C755,147.36,748.4,130.1,736.37,117.1z M766.01,184.93c0.42-0.07,0.88-0.07,1.27-0.07h47.19v10.53c0,30.55-24.24,55.44-54.5,56.48
			c-1.2,0.07-3.38,0.03-4.71,0.03v-41.53c13.58,12.51,35.65-2.31,28.79-19.76h-6.47c5.14,7.67-0.98,18.88-10.3,18.62
			C751.88,208.88,750.9,186.85,766.01,184.93z M755.26,448.17V331.24h33.7c21.68,0.13,37.57-19.27,35.42-40.46h-44
			c-9.81,0-18.65,4.06-25.12,10.56v-39.42c37.6,1.43,69.35-28.79,69.26-66.53c0,0,0-9.49,0-13.46l0.06,2.83h136.46L755.26,448.17z
			 M755.52,321.2c2.31-11.6,12.61-20.41,24.86-20.41h33.51c-2.34,11.67-12.61,20.41-24.93,20.41H755.52z"/>
	</g>
	<g>
		<g>
			<g>
				<g>
					<path class="st0" d="M279.28,1348.92c8.97-3.28,14.62-11.57,14.62-22.26c0-19.69-14.36-28.31-29.51-28.31h-36.82v103.77h36.82
						c15.37,0,32.6-5.75,32.6-27.11C296.99,1362.99,290.58,1352.46,279.28,1348.92z M234.46,1305.18h29.93
						c11.18,0,22.98,6.37,22.98,21.48c0,14.82-11.31,18.69-22.1,18.69h-30.81V1305.18z M264.39,1394.45h-29.93v-41.53h30.81
						c12.09,0,24.76,5.78,24.93,21.94C290.19,1391.33,275.7,1394.45,264.39,1394.45z"/>
				</g>
			</g>
			<g>
				<g>
					<path class="st0" d="M365.24,1298.35h-7.54l-40.33,103.77h7.44l9.78-25.48h53.62l9.91,25.48h7.44L365.24,1298.35z
						 M337.29,1369.23l24.15-63.18l24.08,63.18H337.29z"/>
				</g>
			</g>
			<g>
				<g>
					<path class="st0" d="M473.72,1362.41c19.6,0,29.25-14.82,29.12-31.72c-0.13-16.18-10.01-32.34-29.54-32.34h-39.52v103.77h6.96
						v-39.26h24.5l31.04,39.26h9.1L473.72,1362.41z M440.73,1355.29v-49.53h32.56c14.92,0,22.1,12.61,21.94,24.76
						c-0.13,14.53-7.02,24.76-22.68,24.76H440.73z"/>
				</g>
			</g>
			<g>
				<g>
					<path class="st0" d="M640.92,1374.89v-22.68h8.19v-6.37h-38.09c-10.79,0-25.41-4.87-25.58-20.73
						c-0.1-11.77,8.12-20.93,25.32-20.93c11.93,0,22.98,2.79,22.98,19.11h6.01c0-21.32-14.49-25.67-28.86-25.67
						c-20.54,0-31.98,11.57-31.98,27.62c0,11.57,7.21,20.6,16.57,23.85c-9,3.41-18.1,12.48-18.1,25.35
						c0,17.81,11.44,28.92,33.25,28.92c9.62,0,19.86-2.21,26.42-14.53c1.92,8.74,7.7,14.4,15.01,13.19v-6.21
						C643.1,1395.95,640.92,1386,640.92,1374.89z M635.27,1374.89c0,17.36-14.49,21.51-24.76,21.51c-18.1,0-26.58-8.61-26.58-21.97
						c0-10.66,9-22.23,26.71-22.23h24.63V1374.89z"/>
				</g>
			</g>
			<g>
				<polygon class="st0" points="735.51,1353.5 788.12,1353.5 788.12,1346.23 735.51,1346.23 735.51,1305.91 790.67,1305.91 
					790.67,1298.36 728.7,1298.36 728.7,1402.13 792.24,1402.13 792.24,1394.44 735.51,1394.44 				"/>
			</g>
			<g>
				<g>
					<path class="st0" d="M862.67,1298.35h-7.54l-40.33,103.77h7.44l9.78-25.48h53.62l9.88,25.48H903L862.67,1298.35z
						 M834.72,1369.23l24.11-63.18l24.11,63.18H834.72z"/>
				</g>
			</g>
			<g>
				<polygon class="st0" points="911.67,1305.49 944.17,1305.49 944.17,1402.13 951.11,1402.13 951.11,1305.49 983.61,1305.49 
					983.61,1298.38 911.67,1298.38 				"/>
			</g>
			<g>
				<polygon class="st0" points="1017.19,1353.5 1069.8,1353.5 1069.8,1346.23 1017.19,1346.23 1017.19,1305.91 1072.38,1305.91 
					1072.38,1298.36 1010.38,1298.36 1010.38,1402.13 1073.91,1402.13 1073.91,1394.44 1017.19,1394.44 				"/>
			</g>
			<g>
				<g>
					<path class="st0" d="M1145.76,1362.41c19.66,0,29.28-14.82,29.15-31.72c-0.13-16.18-10.01-32.34-29.51-32.34h-39.55v103.77
						h6.95v-39.26h24.5l31.07,39.26h9.1L1145.76,1362.41z M1112.81,1355.29v-49.53h32.6c14.85,0,22.07,12.61,21.94,24.76
						c-0.13,14.53-7.08,24.76-22.72,24.76H1112.81z"/>
				</g>
			</g>
			<g>
				<polygon class="st0" points="1233.82,1352.91 1203.4,1298.36 1195.3,1298.36 1195.3,1298.5 1230.34,1360.64 1230.34,1402.13 
					1237.27,1402.13 1237.27,1360.64 1272.43,1298.5 1272.43,1298.36 1264.37,1298.36 				"/>
			</g>
		</g>
	</g>
</g>
</svg>
